<svg xmlns:svg="http://www.w3.org/2000/svg" xmlns="http://www.w3.org/2000/svg" viewBox="0 0 1122.52 793.701" height="793.701" width="1122.52" xml:space="preserve" version="1.1"><style>.s0{fill:#fff;}</style><defs><clipPath clipPathUnits="userSpaceOnUse"><path d="M0 595.276H841.89V0H0Z"/></clipPath><clipPath clipPathUnits="userSpaceOnUse"><path d="m388.574 313.238h160.47V206.714h-160.47z"/></clipPath></defs><g transform="matrix(1.3333333,0,0,-1.3333333,0,793.70133)"><g clip-path="url(#clipPath18)"><g transform="translate(548.9453,297.6379)"><path d="m0 0c0-50.074-40.594-90.667-90.667-90.667-50.074 0-90.667 40.593-90.667 90.667 0 50.074 40.593 90.667 90.667 90.667C-40.594 90.667 0 50.074 0 0" fill="#332d2b"/></g><g transform="translate(444.5605,387.2732)"><path d="m0 0c-25.705-3.253-41.917-18.142-45.704-21.155-26.502-21.084-31.2-58.866-31.131-64.126 0 0 11.789 10.169 36.317 23.219 33.559 17.856 56.358 12.568 89.617 36 10.575 7.451 13.826 11.651 11.977 13.755C51.503-5.444 25.29 4.769 0 0" fill="#3ea1af"/></g><g transform="translate(368.0703,306.8103)"><path d="m0 0c-3.483-35.377 13.958-69.657 44.521-87.499 32.126-18.753 71.769-15.273 99.911 5.655 25.285 18.803 37.107 48.587 36.398 75.427-0.628 23.805-10.857 41.074-14.562 46.604-7.469 11.421-14.125 17.832-28.702 27.969C111.291 46.344 23.461 38.657 0 0" fill="#6c979b"/></g><g clip-path="url(#clipPath38)" opacity="0.92"><g transform="translate(388.5742,239.6555)"><path d="m0 0c16.149-21.763 68.489-53.423 123.928-14.689 2.233 1.56 26.349 19.735 33.695 50.653 2.748 7.124 3.251 25.458 2.581 27.548C163.469 92.365 75.823 55.516 0 0" fill="#4d5d7e"/></g></g><g transform="translate(466.9258,322.3279)"><path d="M0 0C37.322 18.552 55.147 34.951 58.915 40.246 53.571 47.816 43.939 51.59 39.518 54.287 32.785 40.623 28.152 28.949-0.518 0.649-0.854 0.317-0.432-0.214 0 0" fill="#fff"/></g><g transform="translate(459.2236,286.5305)"><path d="M0 0C71.024 11.542 107.879 29.061 116.372 35.578 110.157 49.922 95.139 60.336 88.616 66.624 71.814 48.404 59.375 32.313-0.614 1.475-1.963 0.702-1.037-0.077 0 0" fill="#fff"/></g><g transform="translate(555.4824,301.6252)"><path d="m0 0c-23.632-18.155-41.335-34.724-123.004-58.413-0.959-0.277-0.357-1.631 0.737-1.653 94.718-1.976 144.736 10.607 156.468 16.547C27.128-24.888 8.117-9.016 0 0" fill="#fff"/></g><path d="m472.043 338.112h-98.229v7.454h98.229zM426.859 210.981 426.859 210.981h-7.863v173.314h7.863z" fill="#fff"/><g transform="translate(395.0728,268.4768)"><path d="m0 0 6.2-1.843 21.655 72.87-6.2 1.842z" fill="#fff"/></g><path d="m401.273 266.634h-33.662v7.174h33.662zM454.329 207.062 454.329 207.062h-9.436v149.81h9.436z" fill="#fff"/></g></g></svg>